name C:\Users\antoi\Documents\MyRepositories\upper-imu-dc\Results\main_tracking\Case_86\kinematics.mot
datacolumns 43
datarows 9
range 2.10000000 2.26000000
endheader 
time	clav_prot	clav_elev	scapula_abduction	scapula_elevation	scapula_upward_rot	scapula_winging	plane_elv	shoulder_elv	axial_rot	TrapeziusScapula_M/activation	TrapeziusScapula_S/activation	TrapeziusScapula_I/activation	TrapeziusClavicle_S/activation	SerratusAnterior_I/activation	SerratusAnterior_M/activation	SerratusAnterior_S/activation	Rhomboideus_S/activation	Rhomboideus_I/activation	LevatorScapulae/activation	Coracobrachialis/activation	DeltoideusClavicle_A/activation	DeltoideusScapula_P/activation	DeltoideusScapula_M/activation	LatissimusDorsi_S/activation	LatissimusDorsi_M/activation	LatissimusDorsi_I/activation	PectoralisMajorClavicle_S/activation	PectoralisMajorThorax_I/activation	PectoralisMajorThorax_M/activation	TeresMajor/activation	Infraspinatus_I/activation	Infraspinatus_S/activation	PectoralisMinor/activation	TeresMinor/activation	Subscapularis_S/activation	Subscapularis_M/activation	Subscapularis_I/activation	Supraspinatus_P/activation	Supraspinatus_A/activation	TRIlong/activation	BIC_long/activation	BIC_brevis/activation	
          2.10000000	        -40.86143883	         -2.12467356	        -38.20958074	         -5.55267130	         20.39734481	         -1.56751628	        -16.87230591	         -1.30751815	         77.88337498	          0.01000000	          0.02981454	          0.01000000	          0.01386950	          0.05240480	          0.02622046	          0.01000000	          0.01000000	          0.01000000	          0.01000000	          0.01000000	          0.01244145	          0.01000000	          0.02070352	          0.01000000	          0.01000000	          0.01000000	          0.01000000	          0.01000000	          0.01000000	          0.01000000	          0.01979496	          0.01000036	          0.01000000	          0.01029697	          0.01000000	          0.01000000	          0.01000000	          0.01000000	          0.01000000	          0.01000000	          0.01091829	          0.01000000	
          2.12000000	        -40.95075451	         -2.22765482	        -38.46283386	         -5.58068386	         20.15746897	         -1.51309344	        -17.40808016	         -1.09422547	         77.39257516	          0.01000000	          0.02974416	          0.01000000	          0.01364790	          0.05383077	          0.02553462	          0.01000000	          0.01000000	          0.01000000	          0.01000000	          0.01000000	          0.01555190	          0.01000000	          0.01552764	          0.01000000	          0.01000000	          0.01000000	          0.01000000	          0.01000000	          0.01000007	          0.01000000	          0.01988427	          0.01000008	          0.01000000	          0.01000003	          0.01000000	          0.01000000	          0.01000000	          0.01000000	          0.01000000	          0.01000000	          0.01478459	          0.01000000	
          2.14000000	        -41.03603130	         -2.31172204	        -38.68205846	         -5.60631823	         19.96997103	         -1.47682518	        -18.01230135	         -0.90516122	         76.98022463	          0.01000000	          0.02989755	          0.01000000	          0.01235428	          0.05605177	          0.02192995	          0.01000000	          0.01000000	          0.01000000	          0.01000000	          0.01000000	          0.01718285	          0.01000000	          0.01164573	          0.01000000	          0.01000000	          0.01000000	          0.01035400	          0.01000000	          0.01254935	          0.01000000	          0.01928188	          0.01000001	          0.01000000	          0.01000002	          0.01000000	          0.01000000	          0.01000000	          0.01000000	          0.01090874	          0.01000000	          0.01675479	          0.01000090	
          2.16000000	        -41.10831180	         -2.38799552	        -38.85732644	         -5.63494297	         19.82536179	         -1.44730118	        -18.65248775	         -0.73750101	         76.67361954	          0.01000000	          0.02878636	          0.01000003	          0.01165556	          0.05635552	          0.02044976	          0.01000000	          0.01000000	          0.01000000	          0.01000000	          0.01000000	          0.01762171	          0.01000000	          0.01000000	          0.01000000	          0.01000000	          0.01000000	          0.01204897	          0.01000000	          0.01248396	          0.01000000	          0.01899083	          0.01000001	          0.01000000	          0.01000002	          0.01000000	          0.01000000	          0.01000000	          0.01000000	          0.01279778	          0.01000000	          0.01735290	          0.01481395	
          2.18000000	        -41.16147058	         -2.46930962	        -38.98498491	         -5.67242020	         19.70998635	         -1.41271371	        -19.30053732	         -0.58637222	         76.49311785	          0.01000000	          0.02758509	          0.01000058	          0.01086847	          0.05613663	          0.01872380	          0.01000000	          0.01000000	          0.01000000	          0.01000000	          0.01000002	          0.01718060	          0.01000000	          0.01000000	          0.01000000	          0.01000000	          0.01000000	          0.01328326	          0.01000000	          0.01299942	          0.01000000	          0.01757386	          0.01000000	          0.01000000	          0.01000001	          0.01000000	          0.01000000	          0.01000000	          0.01000000	          0.01409170	          0.01000000	          0.01697915	          0.01929058	
          2.20000000	        -41.18917439	         -2.56609411	        -39.06376047	         -5.72203584	         19.60687494	         -1.36132105	        -19.92935827	         -0.44308253	         76.45896490	          0.01000000	          0.02621683	          0.01034620	          0.01044408	          0.05454780	          0.01785620	          0.01000000	          0.01000000	          0.01000000	          0.01000000	          0.01000007	          0.01647846	          0.01000000	          0.01000000	          0.01000000	          0.01000000	          0.01000000	          0.01394568	          0.01000000	          0.01360143	          0.01000000	          0.01556949	          0.01000000	          0.01000000	          0.01000000	          0.01000000	          0.01000000	          0.01000000	          0.01000000	          0.01456398	          0.01000000	          0.01644947	          0.02168547	
          2.22000000	        -41.18707550	         -2.68473679	        -39.09686352	         -5.78404033	         19.49815489	         -1.28388725	        -20.51731143	         -0.29795834	         76.58582775	          0.01000000	          0.02482221	          0.01000018	          0.01017089	          0.05250186	          0.01730063	          0.01000000	          0.01000000	          0.01000000	          0.01000000	          0.01000009	          0.01547342	          0.01000000	          0.01000000	          0.01000000	          0.01000000	          0.01000000	          0.01377162	          0.01000000	          0.01374387	          0.01000000	          0.01343476	          0.01000000	          0.01000000	          0.01000000	          0.01000000	          0.01000000	          0.01000000	          0.01000000	          0.01475933	          0.01000000	          0.01586498	          0.02181515	
          2.24000000	        -41.15314268	         -2.82631902	        -39.09104685	         -5.85538473	         19.36780604	         -1.17511783	        -21.04939723	         -0.14222455	         76.88168020	          0.01000000	          0.02372803	          0.01000001	          0.01026599	          0.05006047	          0.01747396	          0.01000000	          0.01000000	          0.01000000	          0.01000000	          0.01000004	          0.01485838	          0.01000000	          0.01000000	          0.01000000	          0.01000000	          0.01000000	          0.01313581	          0.01000000	          0.01412067	          0.01000000	          0.01099031	          0.01000000	          0.01000000	          0.01000000	          0.01000000	          0.01000000	          0.01000000	          0.01000000	          0.01405742	          0.01000000	          0.01539286	          0.01985008	
          2.26000000	        -41.08872109	         -2.98682983	        -39.05635185	         -5.93058372	         19.20439161	         -1.03480979	        -21.51915502	          0.02989642	         77.34596952	          0.01000000	          0.02278437	          0.01000000	          0.01076220	          0.04783515	          0.01848944	          0.01000000	          0.01000000	          0.01000000	          0.01000000	          0.01000001	          0.01243908	          0.01000000	          0.01000000	          0.01000000	          0.01000000	          0.01000000	          0.01195459	          0.01000000	          0.01417841	          0.01000000	          0.01000000	          0.01000000	          0.01000000	          0.01000000	          0.01000000	          0.01000000	          0.01000000	          0.01000000	          0.01489831	          0.01000000	          0.01502760	          0.01671477	
